<?xml version="1.0" standalone="no"?>
<!DOCTYPE svg PUBLIC "-//W3C//DTD SVG 20010904//EN"
 "http://www.w3.org/TR/2001/REC-SVG-20010904/DTD/svg10.dtd">
<svg version="1.0" xmlns="http://www.w3.org/2000/svg"
 width="1542.000000pt" height="1542.000000pt" viewBox="0 0 1542.000000 1542.000000"
 preserveAspectRatio="xMidYMid meet">
<metadata>
Created by potrace 1.11, written by Peter Selinger 2001-2013
</metadata>
<g transform="translate(0.000000,1542.000000) scale(0.100000,-0.100000)"
fill="#000000" stroke="none">
<path d="M5121 13995 l-2574 -1425 -918 0 -919 0 0 -4863 0 -4863 3492 -1422
c1921 -782 3500 -1422 3508 -1422 8 0 1587 639 3508 1421 l3492 1422 0 4864 0
4863 -918 0 -919 0 -214 119 c-118 65 -677 375 -1244 688 -566 314 -1626 900
-2355 1303 -729 404 -1334 735 -1345 737 -12 2 -1028 -555 -2594 -1422z"/>
</g>
</svg>
