<?xml version="1.0" standalone="no"?>
<!DOCTYPE svg PUBLIC "-//W3C//DTD SVG 20010904//EN"
 "http://www.w3.org/TR/2001/REC-SVG-20010904/DTD/svg10.dtd">
<svg version="1.0" xmlns="http://www.w3.org/2000/svg"
 width="1542.000000pt" height="1542.000000pt" viewBox="0 0 1542.000000 1542.000000"
 preserveAspectRatio="xMidYMid meet">
<metadata>
Created by potrace 1.11, written by Peter Selinger 2001-2013
</metadata>
<g transform="translate(0.000000,1542.000000) scale(0.100000,-0.100000)"
fill="#000000" stroke="none">
<path d="M5715 12370 l-1990 -1299 -757 -1 -758 0 0 -3599 0 -3598 248 -101
c136 -56 1373 -560 2750 -1120 l2503 -1019 1312 534 c721 294 1915 780 2652
1080 737 300 1384 563 1438 585 l97 40 0 3599 0 3599 -750 0 -750 0 -1992
1296 c-1096 713 -1997 1298 -2003 1300 -5 2 -905 -581 -2000 -1296z m6003
-3176 l-3 -1157 -232 -131 c-128 -71 -233 -133 -233 -137 0 -3 106 -84 235
-180 l234 -174 1 -317 0 -318 -4005 0 -4005 0 0 333 0 333 160 143 c88 79 160
148 160 153 0 5 -72 87 -160 183 l-160 173 0 1051 0 1051 736 0 c692 0 736 -1
741 -17 2 -10 156 -421 342 -913 l337 -895 346 -3 c324 -2 347 -1 352 15 2 10
102 423 221 918 119 495 218 906 220 913 4 9 175 12 814 12 l811 0 4 -22 c3
-13 104 -477 224 -1033 l219 -1010 286 -3 c158 -1 287 -1 287 0 0 28 210 2031
213 2034 3 3 92 12 198 20 107 9 511 42 899 74 388 32 717 58 733 59 l27 1 -2
-1156z m-1890 -4015 c332 -2 605 -6 607 -9 2 -4 -2 -18 -10 -33 -23 -45 -50
-92 -55 -97 -3 -3 -10 -14 -16 -25 -44 -81 -67 -121 -73 -125 -3 -3 -15 -24
-26 -47 -11 -24 -23 -43 -27 -43 -5 0 -8 -5 -8 -10 0 -6 -11 -29 -26 -51 -25
-40 -42 -70 -92 -159 -14 -25 -29 -46 -34 -48 -4 -2 -8 -12 -8 -22 0 -10 -4
-20 -8 -22 -5 -1 -20 -23 -34 -48 -14 -25 -42 -74 -62 -108 -20 -35 -36 -68
-36 -73 0 -5 -4 -9 -9 -9 -5 0 -11 -8 -14 -17 -6 -18 -45 -89 -60 -108 -4 -5
-22 -34 -40 -64 -18 -30 -36 -54 -42 -54 -10 0 -119 173 -110 173 3 0 -25 48
-61 107 -37 59 -68 114 -69 123 -2 8 -4 16 -4 18 -1 2 -7 0 -13 -5 -7 -4 -15
-8 -18 -9 -3 0 -23 -9 -45 -19 -22 -10 -42 -19 -45 -20 -3 0 -15 -6 -27 -13
-13 -7 -23 -11 -23 -8 0 2 -32 -11 -70 -30 -39 -19 -73 -34 -76 -34 -3 0 -35
-14 -72 -31 -37 -17 -82 -37 -99 -45 -18 -8 -48 -20 -65 -28 -18 -8 -55 -24
-83 -36 -53 -23 -101 -44 -150 -65 -16 -7 -60 -27 -97 -44 -37 -17 -69 -31
-72 -31 -8 0 -137 -58 -168 -76 -16 -8 -28 -12 -28 -8 0 4 -9 -1 -20 -11 -11
-10 -20 -15 -20 -11 0 4 -10 1 -22 -6 -13 -7 -25 -13 -28 -14 -3 0 -23 -9 -45
-18 -22 -10 -71 -32 -110 -48 -38 -17 -99 -44 -135 -60 -36 -17 -80 -36 -97
-44 -18 -8 -50 -21 -70 -30 -21 -9 -51 -22 -68 -29 -16 -7 -56 -25 -88 -39
-32 -14 -59 -26 -62 -26 -2 0 -33 -13 -68 -30 -110 -51 -163 -41 -270 52 -18
15 -40 30 -49 34 -10 3 -18 9 -18 12 0 4 -25 25 -55 47 -30 22 -55 43 -55 48
0 4 -6 7 -12 7 -7 0 -30 15 -50 33 -60 52 -110 92 -122 96 -6 2 -24 17 -41 33
-16 15 -33 28 -37 28 -4 0 -21 14 -38 30 -17 17 -34 30 -38 30 -4 0 -21 13
-38 28 -18 15 -42 34 -54 42 -12 8 -28 21 -36 28 -7 7 -35 29 -61 49 -26 20
-49 40 -51 45 -2 4 -9 8 -15 8 -7 0 -29 16 -50 35 -38 34 -40 34 -73 20 -19
-8 -34 -12 -34 -10 0 2 -20 -4 -45 -15 -25 -11 -46 -19 -48 -18 -2 2 -371
-116 -407 -130 -21 -7 -21 -8 -55 -17 -16 -4 -36 -12 -42 -18 -7 -5 -13 -6
-13 -1 0 4 -5 3 -12 -4 -7 -7 -22 -12 -33 -12 -12 0 -25 -3 -29 -7 -3 -4 -15
-8 -25 -10 -10 -1 -31 -8 -47 -14 -16 -7 -32 -13 -36 -13 -3 -1 -10 -4 -14 -8
-4 -5 -17 -8 -29 -8 -11 0 -26 -5 -33 -12 -7 -7 -12 -9 -12 -6 0 4 -37 -6 -82
-21 -46 -15 -85 -28 -88 -29 -3 0 -18 -6 -34 -12 -95 -36 -194 1 -226 85 -24
63 13 169 70 196 28 14 25 13 65 24 17 4 36 13 44 19 8 6 16 10 18 8 4 -3 55
9 68 17 6 3 15 6 20 7 6 1 96 30 200 65 105 34 195 64 200 65 8 2 170 55 275
90 8 3 15 5 15 5 0 -1 80 26 178 58 97 33 177 57 177 54 0 -3 6 0 14 6 17 15
93 16 127 3 14 -6 38 -21 55 -34 16 -13 70 -55 119 -93 50 -38 92 -72 93 -77
2 -4 10 -8 18 -8 8 0 14 -4 14 -8 0 -4 45 -41 100 -82 55 -41 100 -77 100 -81
0 -4 8 -10 18 -13 9 -4 31 -19 48 -34 18 -15 73 -58 124 -97 51 -38 109 -85
129 -102 20 -18 39 -33 43 -33 4 0 20 -12 35 -26 39 -37 64 -44 90 -26 13 8
23 11 23 7 0 -5 9 0 20 10 11 10 20 15 20 11 0 -4 10 -1 23 6 12 7 24 13 27
13 3 1 27 11 53 23 27 12 50 22 52 22 2 0 48 20 102 45 121 56 158 73 183 80
3 1 28 12 55 24 28 13 64 29 80 36 17 7 57 25 90 40 72 32 118 52 165 72 19 8
52 23 73 34 20 10 37 16 37 12 0 -3 9 2 20 12 11 10 20 15 20 11 0 -4 10 -1
23 6 12 7 24 13 27 13 10 3 61 25 124 55 36 16 67 30 70 30 3 0 38 15 78 34
63 29 96 43 118 51 3 1 23 10 45 20 22 10 42 19 45 20 6 2 61 26 135 59 28 13
72 31 98 41 26 10 50 22 53 27 3 4 -15 42 -40 83 -25 42 -46 79 -46 83 0 4
-16 34 -36 67 -36 59 -134 235 -134 241 0 5 46 9 95 7 28 -1 321 -3 653 -4z"/>
<path d="M7385 7975 c-176 -102 -319 -188 -318 -191 2 -5 599 -353 614 -357
13 -4 679 387 672 394 -9 9 -635 339 -643 339 -3 0 -149 -83 -325 -185z"/>
</g>
</svg>
